HIERARCHY
ROOT Hip
{
    OFFSET 0.0 0.0 0.0
    CHANNELS 6 Xposition Yposition Zposition Zrotation Xrotation Yrotation
    JOINT RightHip
    {
        OFFSET -6.542606559244554 0.0 0.0
        CHANNELS 3 Zrotation Xrotation Yrotation
        JOINT RightKnee
        {
            OFFSET 0.0 0.0 -23.02823253995495
            CHANNELS 3 Zrotation Xrotation Yrotation
            JOINT RightAnkle
            {
                OFFSET 0.0 0.0 -27.494365810787585
                CHANNELS 3 Zrotation Xrotation Yrotation
                End Site
                {
                    OFFSET 0.0 -10.997746324315035 0.0
                }
            }
        }
    }
    JOINT LeftHip
    {
        OFFSET 6.542606559244554 0.0 0.0
        CHANNELS 3 Zrotation Xrotation Yrotation
        JOINT LeftKnee
        {
            OFFSET 0.0 0.0 -23.02823253995495
            CHANNELS 3 Zrotation Xrotation Yrotation
            JOINT LeftAnkle
            {
                OFFSET 0.0 0.0 -27.494365810787585
                CHANNELS 3 Zrotation Xrotation Yrotation
                End Site
                {
                    OFFSET 0.0 -10.997746324315035 0.0
                }
            }
        }
    }
    JOINT Spine
    {
        OFFSET 0.0 0.0 19.109671559670222
        CHANNELS 3 Zrotation Xrotation Yrotation
        JOINT Thorax
        {
            OFFSET 0.0 0.0 22.024536852947453
            CHANNELS 3 Zrotation Xrotation Yrotation
            JOINT Neck
            {
                OFFSET 0.0 0.0 2.791699693308296
                CHANNELS 3 Zrotation Xrotation Yrotation
                JOINT Head
                {
                    OFFSET 0.0 0.0 9.454494295974149
                    CHANNELS 3 Zrotation Xrotation Yrotation
                    End Site
                    {
                        OFFSET -3.78179771838966 0.0 0.0
                    }
                }
            }
            JOINT LeftShoulder
            {
                OFFSET 11.790431298389517 0.0 0.0
                CHANNELS 3 Zrotation Xrotation Yrotation
                JOINT LeftElbow
                {
                    OFFSET 22.142788314077933 0.0 0.0
                    CHANNELS 3 Zrotation Xrotation Yrotation
                    JOINT LeftWrist
                    {
                        OFFSET 12.308158142996586 0.0 0.0
                        CHANNELS 3 Zrotation Xrotation Yrotation
                        End Site
                        {
                            OFFSET 4.923263257198635 0.0 0.0
                        }
                    }
                }
            }
            JOINT RightShoulder
            {
                OFFSET -11.790431298389517 0.0 0.0
                CHANNELS 3 Zrotation Xrotation Yrotation
                JOINT RightElbow
                {
                    OFFSET -22.142788314077933 0.0 0.0
                    CHANNELS 3 Zrotation Xrotation Yrotation
                    JOINT RightWrist
                    {
                        OFFSET -12.308158142996586 0.0 0.0
                        CHANNELS 3 Zrotation Xrotation Yrotation
                        End Site
                        {
                            OFFSET -4.923263257198635 0.0 0.0
                        }
                    }
                }
            }
            JOINT Nose
            {
                OFFSET 0.0 0.0 8.852197216540842
                CHANNELS 3 Zrotation Xrotation Yrotation
                End Site
                {
                    OFFSET -3.540878886616338 0.0 0.0
                }
            }
        }
    }
}
MOTION
Frames: 8
Frame Time: 0.03333333333333333
-1.3841657568393302 44.289912835228336 8.532051640380105 1.7817124195938745 -3.2273415298869526 2.0085658251388017 -21.927194450838364 -7.137088043511383 -0.4368143159286198 3.9855991444080323 20.986924713604864 0.4553873423572113 0.0 0.0 1.987846675914698e-16 18.04819689402795 -3.9019620460584976 -0.1169228502600115 -1.3286471298154905 15.124003242864559 -0.046944510633348896 0.0 0.0 1.987846675914698e-16 -1.7811127721905613e-16 10.233361353849293 -2.397635539725527e-16 6.9802610188638035 0.055849146799518565 1.0297445342228584 -3.8812793947369015 -6.744941884615786 -15.059280567225944 2.3168697609394145e-34 -9.93923337957349e-17 2.6711689707603756e-16 -66.8779181773183 32.5577892961219 -6.979607812994833 -2.8273586661960813e-15 1.2631353919004833e-14 -133.52685155374772 -1.5902773407317584e-15 0.0 0.0 102.45761603896663 47.52055110260961 4.350032964636454 1.672155572364682e-14 -6.64072833339221e-15 46.680402992156814 0.0 0.0 0.0 0.0 0.0 9.93923337957349e-17
-1.4341279078946865 46.17876275165351 8.134830340888362 3.459551804679615 -3.222194022502079 1.450254786066961 -24.959919598992872 -6.689007926492554 -0.8209497356448846 3.8921584098947033 18.238609393378145 0.5178593833271494 0.0 0.0 0.0 13.270274889954445 -4.3775504389011015 -0.17733632485550052 -1.260015679612229 16.166927609411943 1.5528586230987296 -3.1805546814635164e-15 0.0 0.0 3.9772912533480437e-16 9.917762057777432 1.5373691038086078e-17 4.744585293644862 0.051511168844189964 1.4158043222046928 -4.468755181143401 -7.706545872150304 -23.276574154399004 -5.603591979946491e-34 -9.93923337957349e-17 -6.460501696722769e-16 -70.27933975256045 30.961414815253885 -5.727998581189598 2.627690666653808e-15 8.033615863230462e-15 -133.85263702625926 0.0 0.0 0.0 102.82095886072979 48.2565397403869 4.034596579208039 3.62564479960795e-16 1.4219251338711917e-14 50.208863565624604 0.0 0.0 0.0 0.0 0.0 -9.93923337957349e-17
-1.4215397590362373 45.70286002494974 8.234911717332874 2.7039051648698598 -3.2902352148305565 0.586765934488018 -27.197634436707677 -6.295773910595217 -0.559526319020429 4.089289827397932 15.792231231730277 0.7096816756505431 3.1805546814635168e-15 0.0 0.0 11.861130319416805 -4.7454803213849575 -0.624401654049309 -0.43280452888720294 18.270175615688924 1.9042395498750275 0.0 0.0 -9.93923337957349e-16 -3.9911676262638395e-16 10.407800065507827 -1.076525016974449e-18 2.310924894255288 -0.06203082766411605 1.8448328840289345 -1.3862619008707868 -7.255447953377626 -20.239806980531643 1.0264271847882754e-33 -9.93923337957349e-17 1.1833899742554686e-15 -70.09363249808976 29.227550436461218 -4.711416243195936 -6.5769130105644356e-15 -2.8206561586760136e-15 -133.57368961475368 1.5902773407317584e-15 0.0 0.0 105.84156122912604 48.066174399545766 3.4413998278925795 -2.881060181564785e-15 5.671261284522153e-15 53.862093866938565 0.0 0.0 0.0 2.694034605743505e-35 -1.2424041724466862e-17 2.4848083448933725e-16
-1.4304422456037922 46.039424016969846 8.164132993671561 3.7875859216614014 -3.2362951340226633 -0.018703705775867767 -29.003349983561144 -6.665521428929409 -0.2716286582507058 2.5327080130716446 14.891533469844887 1.3071895837039176 0.0 0.0 0.0 9.335285003156715 -5.152624418383624 -1.2180904566296022 -0.3905677824133014 19.804388413051093 2.8113125484960335 0.0 0.0 3.975693351829396e-16 -8.050322516881659e-16 10.368792040273416 7.304262068057662e-17 -1.4506000572551492 -0.1473509602376724 1.598847282971585 1.3590748751855677 -6.682247473267548 -19.526664798824058 0.0 0.0 -1.4722489443493233e-15 -68.64753576668518 26.990832291317755 -4.132142329906518 5.88907477486172e-15 2.404685140139008e-15 -135.57667873214498 0.0 0.0 0.0 107.47050233067564 51.94655311278876 2.27992964824103 -8.780035642375356e-15 1.9591831902234912e-15 64.84210859829705 0.0 0.0 0.0 0.0 0.0 -4.721135855297407e-16
-1.4223382305144856 45.73304673134847 8.228563514313244 3.961376820559069 -3.2165480703722102 -0.8665422916233798 -29.540194938448348 -7.08919950516282 -0.06824833960763015 1.281149989913858 14.71405564003064 1.9526151650766672 -1.3793457181406746e-33 -7.951386703658792e-16 -1.987846675914698e-16 9.264634644311533 -5.289055958282801 -1.4248759576887224 -2.5435259459906434 20.573302678548153 3.2355165499716434 0.0 0.0 0.0 -2.198035611994682e-18 9.995461309057838 2.513512815126777e-17 -2.979764858525123 -0.25795520057180077 2.161263230267756 2.4398899489709103 -6.632199802788274 -20.205777211486094 0.0 0.0 1.3728566105535883e-15 -67.37667335599623 27.905813914546105 -3.556414364625436 -9.043540579240346e-15 3.14483259216764e-15 -135.0824963472548 0.0 0.0 0.0 105.54150114165071 51.181480103355675 0.4045475467889079 5.200134499547511e-15 -1.6319329507005518e-14 78.95165183588371 3.1805546814635168e-15 6.3611093629270335e-15 -1.7655625192200634e-31 0.0 0.0 -8.696829207126804e-17
-1.4310992841391095 46.06426376378433 8.15890924538807 4.024467204690178 -3.2162056609154264 -2.0341630893870954 -29.486332209419583 -6.887528826237739 -0.2921757254188532 0.05223351391027444 12.80618415980591 1.563246362142854 0.0 0.0 -2.981770013872047e-16 9.118963080408355 -6.111692442054815 -1.2362038999452298 -3.7326488451450186 22.214519818518877 4.29964849148416 0.0 0.0 0.0 0.0 10.289900492219031 0.0 -6.617681385979141 -0.3252004927039832 1.7924860257591806 5.773902330148656 -6.644647602384836 -19.210964532571243 0.0 0.0 -9.93923337957349e-17 -62.06179700227341 29.198656233873738 -3.9191246781080413 2.4138976806328282e-15 -5.885304606777241e-15 -135.39736071832232 1.5902773407317584e-15 0.0 0.0 104.18037936763197 56.1925004590163 -1.514419509000138 -1.553299389578463e-14 -3.4094431624540692e-15 98.49963107415024 1.5902773407317584e-15 0.0 0.0 0.0 0.0 2.4848083448933725e-17
-1.4115405116647761 45.32483231471419 8.314410176685245 4.258711402839629 -3.362331786062099 -3.13607218788321 -30.388499296338132 -6.130543143209918 -0.096909753827447 -0.6203384868127757 10.594001299714058 1.6676172384978434 0.0 0.0 -1.987846675914698e-16 8.499539963164683 -6.219587261940898 -1.3597762219910605 -4.419871668797469 22.895581369107838 4.53331777486313 0.0 0.0 0.0 -9.350562512399524e-18 10.611268129041779 1.0068835443047255e-16 -6.702965247582182 -0.4976590563113882 2.7062642427797785 5.0131239357915 -6.003631541804418 -20.271776304630894 0.0 0.0 1.4784609652115567e-15 -61.275760212540916 26.7554921494554 -4.968515140011173 -8.987054022673483e-15 3.3027955181444477e-15 -137.09027870550096 1.5902773407317584e-15 0.0 0.0 90.11401900261315 55.38220989221507 -1.8179698792231198 1.1455009675545605e-14 -5.383478394959387e-16 107.2383976317337 1.5902773407317584e-15 0.0 0.0 0.0 0.0 0.0
-1.4135531934409789 45.40092298984463 8.298408462313082 4.762124619634996 -3.651860110953613 -3.704978741430567 -31.40376606059592 -5.483142171245775 -0.18704120633078247 -0.24464363039352027 9.31440170380883 1.6818453363176316 0.0 0.0 1.987846675914698e-16 7.4984021170211665 -6.475609144077281 -1.3616394301050658 -4.4259978364640835 24.36126124282225 4.828670987814078 0.0 0.0 0.0 7.456009208491439e-17 10.907926101438568 -7.809124975473695e-16 -7.915552891467147 -0.5696422978277903 2.9057957965527903 4.635838796113433 -5.880672960492318 -18.863465575269615 -3.975693351829396e-16 -4.6552917987247765e-33 1.341796506242421e-15 -60.450442379192964 25.70390571954347 -5.228154055422012 -2.170920489268234e-14 5.00231390856705e-15 -136.30265245362176 1.590277340731758e-15 0.0 0.0 62.53085963026854 53.27322095175134 4.295484050975622 1.7481442811119705e-14 4.255450135825233e-15 117.36246290238728 -1.5902773407317584e-15 0.0 0.0 0.0 0.0 0.0
